<mxfile host="app.diagrams.net" modified="2024-06-11T19:28:32.753Z" agent="Mozilla/5.0 (Macintosh; Intel Mac OS X 10_15_7) AppleWebKit/537.36 (KHTML, like Gecko) Chrome/125.0.0.0 Safari/537.36" etag="pKIk7vgcgkVxwqlRZBg-" version="24.5.3" type="github" pages="4">
  <diagram name="Duvidas" id="4ImuVWxjHxCkxXey1Qk4">
    <mxGraphModel dx="2060" dy="1107" grid="1" gridSize="10" guides="1" tooltips="1" connect="1" arrows="1" fold="1" page="1" pageScale="1" pageWidth="1169" pageHeight="827" math="0" shadow="0">
      <root>
        <mxCell id="0" />
        <mxCell id="1" parent="0" />
      </root>
    </mxGraphModel>
  </diagram>
  <diagram id="ggU9lt-bichQoxydHj4c" name="Luis">
    <mxGraphModel dx="1879" dy="1107" grid="1" gridSize="10" guides="1" tooltips="1" connect="1" arrows="1" fold="1" page="1" pageScale="1" pageWidth="1169" pageHeight="827" math="0" shadow="0">
      <root>
        <mxCell id="0" />
        <mxCell id="1" parent="0" />
      </root>
    </mxGraphModel>
  </diagram>
  <diagram id="cd2ryVmS8qHGtjgT2yN0" name="Leonardo">
    <mxGraphModel dx="2060" dy="1107" grid="1" gridSize="10" guides="1" tooltips="1" connect="1" arrows="1" fold="1" page="1" pageScale="1" pageWidth="1169" pageHeight="827" math="0" shadow="0">
      <root>
        <mxCell id="0" />
        <mxCell id="1" parent="0" />
      </root>
    </mxGraphModel>
  </diagram>
  <diagram id="_m1_OlKlEeiiJuFZ4jAa" name="Origens Scorpion">
    <mxGraphModel dx="1434" dy="772" grid="1" gridSize="10" guides="1" tooltips="1" connect="1" arrows="1" fold="1" page="1" pageScale="1" pageWidth="827" pageHeight="1169" math="0" shadow="0">
      <root>
        <mxCell id="0" />
        <mxCell id="1" parent="0" />
        <mxCell id="38ys9Ac9sPvQ0VFKPcC2-1" value="Vehicle Table" style="swimlane;fillColor=#dae8fc;strokeColor=#000000;" vertex="1" parent="1">
          <mxGeometry x="50" y="90" width="290" height="300" as="geometry">
            <mxRectangle x="50" y="90" width="290" height="30" as="alternateBounds" />
          </mxGeometry>
        </mxCell>
        <mxCell id="38ys9Ac9sPvQ0VFKPcC2-2" value="&lt;b&gt;&lt;br&gt;&lt;/b&gt;&lt;table width=&quot;187&quot; cellspacing=&quot;0&quot; cellpadding=&quot;0&quot; border=&quot;0&quot;&gt; &lt;colgroup&gt;&lt;col style=&quot;mso-width-source:userset;mso-width-alt:5984;width:140pt&quot; width=&quot;187&quot;&gt;&lt;/colgroup&gt; &lt;tbody&gt;&lt;tr style=&quot;height:15.75pt&quot; height=&quot;21&quot;&gt;  &lt;td style=&quot;height:15.75pt;width:140pt&quot; width=&quot;187&quot; class=&quot;xl63&quot; height=&quot;21&quot;&gt;&lt;b&gt;VIN&amp;nbsp;&lt;/b&gt;&lt;/td&gt; &lt;/tr&gt; &lt;tr style=&quot;height:15.75pt&quot; height=&quot;21&quot;&gt;  &lt;td style=&quot;height:15.75pt&quot; class=&quot;xl63&quot; height=&quot;21&quot;&gt;&lt;b&gt;car_model_code&amp;nbsp;&lt;/b&gt;&lt;/td&gt; &lt;/tr&gt; &lt;tr style=&quot;height:15.75pt&quot; height=&quot;21&quot;&gt;  &lt;td style=&quot;height:15.75pt&quot; class=&quot;xl63&quot; height=&quot;21&quot;&gt;&lt;b&gt;first_registration_ date&amp;nbsp;&lt;/b&gt;&lt;/td&gt; &lt;/tr&gt; &lt;tr style=&quot;height:15.75pt&quot; height=&quot;21&quot;&gt;  &lt;td style=&quot;height:15.75pt&quot; class=&quot;xl63&quot; height=&quot;21&quot;&gt;&lt;b&gt;vehicle_manufact urer_code&amp;nbsp;&lt;/b&gt;&lt;/td&gt; &lt;/tr&gt; &lt;tr style=&quot;height:15.75pt&quot; height=&quot;21&quot;&gt;  &lt;td style=&quot;height:15.75pt&quot; class=&quot;xl63&quot; height=&quot;21&quot;&gt;&lt;b&gt;vehicle_manufact urer_name&amp;nbsp;&lt;/b&gt;&lt;/td&gt; &lt;/tr&gt; &lt;tr style=&quot;height:15.75pt&quot; height=&quot;21&quot;&gt;  &lt;td style=&quot;height:15.75pt&quot; class=&quot;xl63&quot; height=&quot;21&quot;&gt;&lt;b&gt;vehicle_model_name&amp;nbsp;&lt;/b&gt;&lt;/td&gt; &lt;/tr&gt; &lt;tr style=&quot;height:15.75pt&quot; height=&quot;21&quot;&gt;  &lt;td style=&quot;height:15.75pt&quot; class=&quot;xl63&quot; height=&quot;21&quot;&gt;&lt;b&gt;vehicle_type_name&amp;nbsp;&lt;/b&gt;&lt;/td&gt; &lt;/tr&gt; &lt;tr style=&quot;height:15.75pt&quot; height=&quot;21&quot;&gt;  &lt;td style=&quot;height:15.75pt&quot; class=&quot;xl63&quot; height=&quot;21&quot;&gt;&lt;b&gt;fuel_type&amp;nbsp;&lt;/b&gt;&lt;/td&gt; &lt;/tr&gt; &lt;tr style=&quot;height:15.75pt&quot; height=&quot;21&quot;&gt;  &lt;td style=&quot;height:15.75pt&quot; class=&quot;xl63&quot; height=&quot;21&quot;&gt;&lt;b&gt;engine_type_name&amp;nbsp;&lt;/b&gt;&lt;/td&gt; &lt;/tr&gt; &lt;tr style=&quot;height:15.75pt&quot; height=&quot;21&quot;&gt;  &lt;td style=&quot;height:15.75pt&quot; class=&quot;xl63&quot; height=&quot;21&quot;&gt;&lt;b&gt;engine_power&amp;nbsp;&lt;/b&gt;&lt;/td&gt; &lt;/tr&gt; &lt;tr style=&quot;height:15.75pt&quot; height=&quot;21&quot;&gt;  &lt;td style=&quot;height:15.75pt&quot; class=&quot;xl63&quot; height=&quot;21&quot;&gt;&lt;b&gt;vehicle_price&amp;nbsp;&lt;/b&gt;&lt;/td&gt; &lt;/tr&gt; &lt;tr style=&quot;height:15.75pt&quot; height=&quot;21&quot;&gt;  &lt;td style=&quot;height:15.75pt&quot; class=&quot;xl63&quot; height=&quot;21&quot;&gt;&lt;b&gt;fleet_info&amp;nbsp;&lt;/b&gt;&lt;/td&gt; &lt;/tr&gt;&lt;/tbody&gt;&lt;/table&gt;" style="text;html=1;align=center;verticalAlign=middle;resizable=0;points=[];autosize=1;strokeColor=none;fillColor=none;" vertex="1" parent="38ys9Ac9sPvQ0VFKPcC2-1">
          <mxGeometry x="40" y="10" width="210" height="280" as="geometry" />
        </mxCell>
        <mxCell id="38ys9Ac9sPvQ0VFKPcC2-3" style="edgeStyle=orthogonalEdgeStyle;rounded=0;orthogonalLoop=1;jettySize=auto;html=1;exitX=0.5;exitY=1;exitDx=0;exitDy=0;entryX=0.5;entryY=0;entryDx=0;entryDy=0;" edge="1" parent="1" source="38ys9Ac9sPvQ0VFKPcC2-4" target="38ys9Ac9sPvQ0VFKPcC2-1">
          <mxGeometry relative="1" as="geometry" />
        </mxCell>
        <mxCell id="38ys9Ac9sPvQ0VFKPcC2-4" value="AAK" style="rounded=0;whiteSpace=wrap;html=1;fillColor=#dae8fc;strokeColor=#6c8ebf;fontStyle=1" vertex="1" parent="1">
          <mxGeometry x="145" y="20" width="100" height="30" as="geometry" />
        </mxCell>
        <mxCell id="38ys9Ac9sPvQ0VFKPcC2-5" style="edgeStyle=orthogonalEdgeStyle;rounded=0;orthogonalLoop=1;jettySize=auto;html=1;exitX=0.5;exitY=0;exitDx=0;exitDy=0;entryX=0.5;entryY=1;entryDx=0;entryDy=0;" edge="1" parent="1" source="38ys9Ac9sPvQ0VFKPcC2-7" target="38ys9Ac9sPvQ0VFKPcC2-10">
          <mxGeometry relative="1" as="geometry">
            <Array as="points">
              <mxPoint x="710" y="350" />
            </Array>
          </mxGeometry>
        </mxCell>
        <mxCell id="38ys9Ac9sPvQ0VFKPcC2-6" style="edgeStyle=orthogonalEdgeStyle;rounded=0;orthogonalLoop=1;jettySize=auto;html=1;exitX=0.5;exitY=1;exitDx=0;exitDy=0;entryX=0.938;entryY=0.008;entryDx=0;entryDy=0;entryPerimeter=0;" edge="1" parent="1" source="38ys9Ac9sPvQ0VFKPcC2-7" target="38ys9Ac9sPvQ0VFKPcC2-19">
          <mxGeometry relative="1" as="geometry" />
        </mxCell>
        <mxCell id="38ys9Ac9sPvQ0VFKPcC2-7" value="Meu VW" style="rounded=0;whiteSpace=wrap;html=1;fillColor=#ffe6cc;strokeColor=#d79b00;fontStyle=1;gradientDirection=east;" vertex="1" parent="1">
          <mxGeometry x="670" y="350" width="90" height="30" as="geometry" />
        </mxCell>
        <mxCell id="38ys9Ac9sPvQ0VFKPcC2-8" value="Service Table" style="swimlane;fillColor=#B0E3E6;strokeColor=#000000;" vertex="1" parent="1">
          <mxGeometry x="380" y="90" width="200" height="370" as="geometry">
            <mxRectangle x="380" y="90" width="200" height="30" as="alternateBounds" />
          </mxGeometry>
        </mxCell>
        <mxCell id="38ys9Ac9sPvQ0VFKPcC2-9" value="&lt;br&gt;&lt;table width=&quot;187&quot; cellspacing=&quot;0&quot; cellpadding=&quot;0&quot; border=&quot;0&quot;&gt; &lt;colgroup&gt;&lt;col style=&quot;mso-width-source:userset;mso-width-alt:5984;width:140pt&quot; width=&quot;187&quot;&gt;&lt;/colgroup&gt; &lt;tbody&gt;&lt;tr style=&quot;height:15.75pt&quot; height=&quot;21&quot;&gt;  &lt;td style=&quot;height:15.75pt;width:140pt&quot; width=&quot;187&quot; class=&quot;xl65&quot; height=&quot;21&quot;&gt;VIN&amp;nbsp;&lt;/td&gt; &lt;/tr&gt; &lt;tr style=&quot;height:15.75pt&quot; height=&quot;21&quot;&gt;  &lt;td style=&quot;height:15.75pt&quot; class=&quot;xl65&quot; height=&quot;21&quot;&gt;customer_id&amp;nbsp;&lt;/td&gt; &lt;/tr&gt; &lt;tr style=&quot;height:15.75pt&quot; height=&quot;21&quot;&gt;  &lt;td style=&quot;height:15.75pt&quot; class=&quot;xl65&quot; height=&quot;21&quot;&gt;Fleet_customer&amp;nbsp;&lt;/td&gt; &lt;/tr&gt; &lt;tr style=&quot;height:15.75pt&quot; height=&quot;21&quot;&gt;  &lt;td style=&quot;height:15.75pt&quot; class=&quot;xl65&quot; height=&quot;21&quot;&gt;dealer_code&amp;nbsp;&lt;/td&gt; &lt;/tr&gt; &lt;tr style=&quot;height:15.75pt&quot; height=&quot;21&quot;&gt;  &lt;td style=&quot;height:15.75pt&quot; class=&quot;xl65&quot; height=&quot;21&quot;&gt;vin_check&amp;nbsp;&lt;/td&gt; &lt;/tr&gt; &lt;tr style=&quot;height:15.75pt&quot; height=&quot;21&quot;&gt;  &lt;td style=&quot;height:15.75pt&quot; class=&quot;xl65&quot; height=&quot;21&quot;&gt;invoice_number&amp;nbsp;&lt;/td&gt; &lt;/tr&gt; &lt;tr style=&quot;height:15.75pt&quot; height=&quot;21&quot;&gt;  &lt;td style=&quot;height:15.75pt&quot; class=&quot;xl65&quot; height=&quot;21&quot;&gt;part_group&amp;nbsp;&lt;/td&gt; &lt;/tr&gt; &lt;tr style=&quot;height:15.75pt&quot; height=&quot;21&quot;&gt;  &lt;td style=&quot;height:15.75pt&quot; class=&quot;xl65&quot; height=&quot;21&quot;&gt;part_description&amp;nbsp;&lt;/td&gt; &lt;/tr&gt; &lt;tr style=&quot;height:15.75pt&quot; height=&quot;21&quot;&gt;  &lt;td style=&quot;height:15.75pt&quot; class=&quot;xl65&quot; height=&quot;21&quot;&gt;invoice_date&amp;nbsp;&lt;/td&gt; &lt;/tr&gt; &lt;tr style=&quot;height:15.75pt&quot; height=&quot;21&quot;&gt;  &lt;td style=&quot;height:15.75pt&quot; class=&quot;xl65&quot; height=&quot;21&quot;&gt;mileage&amp;nbsp;&lt;/td&gt; &lt;/tr&gt; &lt;tr style=&quot;height:15.75pt&quot; height=&quot;21&quot;&gt;  &lt;td style=&quot;height:15.75pt&quot; class=&quot;xl65&quot; height=&quot;21&quot;&gt;repair_type&amp;nbsp;&lt;/td&gt; &lt;/tr&gt; &lt;tr style=&quot;height:15.75pt&quot; height=&quot;21&quot;&gt;  &lt;td style=&quot;height:15.75pt&quot; class=&quot;xl65&quot; height=&quot;21&quot;&gt;labor_cost&amp;nbsp;&lt;/td&gt; &lt;/tr&gt; &lt;tr style=&quot;height:15.75pt&quot; height=&quot;21&quot;&gt;  &lt;td style=&quot;height:15.75pt&quot; class=&quot;xl65&quot; height=&quot;21&quot;&gt;part_price&amp;nbsp;&lt;/td&gt; &lt;/tr&gt; &lt;tr style=&quot;height:15.75pt&quot; height=&quot;21&quot;&gt;  &lt;td style=&quot;height:15.75pt&quot; class=&quot;xl65&quot; height=&quot;21&quot;&gt;part_quantity&amp;nbsp;&lt;/td&gt; &lt;/tr&gt; &lt;tr style=&quot;height:15.75pt&quot; height=&quot;21&quot;&gt;  &lt;td style=&quot;height:15.75pt&quot; class=&quot;xl65&quot; height=&quot;21&quot;&gt;next_MOT&amp;nbsp;&lt;/td&gt; &lt;/tr&gt;&lt;/tbody&gt;&lt;/table&gt;" style="text;html=1;strokeColor=none;fillColor=none;align=center;verticalAlign=middle;whiteSpace=wrap;rounded=0;fontStyle=1" vertex="1" parent="38ys9Ac9sPvQ0VFKPcC2-8">
          <mxGeometry x="25" width="150" height="370" as="geometry" />
        </mxCell>
        <mxCell id="38ys9Ac9sPvQ0VFKPcC2-10" value="Customer Relation Table" style="swimlane;gradientDirection=east;fillColor=#B0E3E6;strokeColor=default;" vertex="1" parent="1">
          <mxGeometry x="620" y="90" width="180" height="150" as="geometry">
            <mxRectangle x="620" y="90" width="180" height="30" as="alternateBounds" />
          </mxGeometry>
        </mxCell>
        <mxCell id="38ys9Ac9sPvQ0VFKPcC2-11" value="&lt;table width=&quot;187&quot; cellspacing=&quot;0&quot; cellpadding=&quot;0&quot; border=&quot;0&quot;&gt;&lt;colgroup&gt;&lt;col style=&quot;mso-width-source:userset;mso-width-alt:5984;width:140pt&quot; width=&quot;187&quot;&gt;&lt;/colgroup&gt;&lt;tbody&gt;&lt;tr style=&quot;height:15.75pt&quot; height=&quot;21&quot;&gt;&lt;td style=&quot;height:15.75pt;width:140pt&quot; width=&quot;187&quot; class=&quot;xl65&quot; height=&quot;21&quot;&gt;VIN&amp;nbsp;&lt;/td&gt; &lt;/tr&gt; &lt;tr style=&quot;height:15.75pt&quot; height=&quot;21&quot;&gt;  &lt;td style=&quot;height:15.75pt&quot; class=&quot;xl65&quot; height=&quot;21&quot;&gt;fleet_flag&amp;nbsp;&lt;/td&gt; &lt;/tr&gt; &lt;tr style=&quot;height:15.75pt&quot; height=&quot;21&quot;&gt;  &lt;td style=&quot;height:15.75pt&quot; class=&quot;xl65&quot; height=&quot;21&quot;&gt;Customer_ID&amp;nbsp;&lt;/td&gt; &lt;/tr&gt; &lt;tr style=&quot;height:15.75pt&quot; height=&quot;21&quot;&gt;  &lt;td style=&quot;height:15.75pt&quot; class=&quot;xl65&quot; height=&quot;21&quot;&gt;relation_start&amp;nbsp;&lt;/td&gt; &lt;/tr&gt; &lt;tr style=&quot;height:15.75pt&quot; height=&quot;21&quot;&gt;  &lt;td style=&quot;height:15.75pt&quot; class=&quot;xl65&quot; height=&quot;21&quot;&gt;relation_end&amp;nbsp;&lt;/td&gt; &lt;/tr&gt;&lt;/tbody&gt;&lt;/table&gt;" style="text;html=1;strokeColor=none;fillColor=none;align=center;verticalAlign=middle;whiteSpace=wrap;rounded=0;fontStyle=1" vertex="1" parent="38ys9Ac9sPvQ0VFKPcC2-10">
          <mxGeometry x="60" y="70" width="60" height="30" as="geometry" />
        </mxCell>
        <mxCell id="38ys9Ac9sPvQ0VFKPcC2-12" style="edgeStyle=orthogonalEdgeStyle;rounded=0;orthogonalLoop=1;jettySize=auto;html=1;exitX=0.5;exitY=1;exitDx=0;exitDy=0;entryX=0.5;entryY=0;entryDx=0;entryDy=0;" edge="1" parent="1" source="38ys9Ac9sPvQ0VFKPcC2-13" target="38ys9Ac9sPvQ0VFKPcC2-14">
          <mxGeometry relative="1" as="geometry" />
        </mxCell>
        <mxCell id="38ys9Ac9sPvQ0VFKPcC2-13" value="&lt;b&gt;SAGA/2&lt;/b&gt;" style="rounded=0;whiteSpace=wrap;html=1;fillColor=#FFFC9E;gradientDirection=east;strokeColor=#d6b656;" vertex="1" parent="1">
          <mxGeometry x="155" y="510" width="90" height="30" as="geometry" />
        </mxCell>
        <mxCell id="38ys9Ac9sPvQ0VFKPcC2-14" value="Warranty / Customer Care Table" style="swimlane;fillColor=#FFFC9E;gradientColor=none;gradientDirection=east;" vertex="1" parent="1">
          <mxGeometry x="90" y="580" width="220" height="150" as="geometry">
            <mxRectangle x="840" y="90" width="220" height="30" as="alternateBounds" />
          </mxGeometry>
        </mxCell>
        <mxCell id="38ys9Ac9sPvQ0VFKPcC2-15" value="&lt;table width=&quot;187&quot; cellspacing=&quot;0&quot; cellpadding=&quot;0&quot; border=&quot;0&quot;&gt;&lt;colgroup&gt;&lt;col style=&quot;mso-width-source:userset;mso-width-alt:5984;width:140pt&quot; width=&quot;187&quot;&gt;&lt;/colgroup&gt;&lt;tbody&gt;&lt;tr style=&quot;height:15.75pt&quot; height=&quot;21&quot;&gt;&lt;td style=&quot;height:15.75pt;width:140pt&quot; width=&quot;187&quot; class=&quot;xl65&quot; height=&quot;21&quot;&gt;VIN&amp;nbsp;&lt;/td&gt; &lt;/tr&gt; &lt;tr style=&quot;height:15.75pt&quot; height=&quot;21&quot;&gt;  &lt;td style=&quot;height:15.75pt&quot; class=&quot;xl65&quot; height=&quot;21&quot;&gt;warranty_start_date&amp;nbsp;&lt;/td&gt; &lt;/tr&gt; &lt;tr style=&quot;height:15.75pt&quot; height=&quot;21&quot;&gt;  &lt;td style=&quot;height:15.75pt&quot; class=&quot;xl65&quot; height=&quot;21&quot;&gt;warranty_end_date&amp;nbsp;&lt;/td&gt; &lt;/tr&gt; &lt;tr style=&quot;height:15.75pt&quot; height=&quot;21&quot;&gt;  &lt;td style=&quot;height:15.75pt&quot; class=&quot;xl65&quot; height=&quot;21&quot;&gt;warranty_extension&amp;nbsp;&lt;/td&gt; &lt;/tr&gt; &lt;tr style=&quot;height:15.75pt&quot; height=&quot;21&quot;&gt;  &lt;td style=&quot;height:15.75pt&quot; class=&quot;xl65&quot; height=&quot;21&quot;&gt;service_packages&amp;nbsp;&lt;/td&gt; &lt;/tr&gt;&lt;/tbody&gt;&lt;/table&gt;" style="text;html=1;strokeColor=none;fillColor=none;align=center;verticalAlign=middle;whiteSpace=wrap;rounded=0;fontStyle=1" vertex="1" parent="38ys9Ac9sPvQ0VFKPcC2-14">
          <mxGeometry x="80" y="70" width="60" height="30" as="geometry" />
        </mxCell>
        <mxCell id="38ys9Ac9sPvQ0VFKPcC2-16" style="edgeStyle=orthogonalEdgeStyle;rounded=0;orthogonalLoop=1;jettySize=auto;html=1;exitX=0.25;exitY=1;exitDx=0;exitDy=0;entryX=0.75;entryY=0;entryDx=0;entryDy=0;" edge="1" parent="1" source="38ys9Ac9sPvQ0VFKPcC2-18" target="38ys9Ac9sPvQ0VFKPcC2-14">
          <mxGeometry relative="1" as="geometry" />
        </mxCell>
        <mxCell id="38ys9Ac9sPvQ0VFKPcC2-17" style="edgeStyle=orthogonalEdgeStyle;rounded=0;orthogonalLoop=1;jettySize=auto;html=1;exitX=0.5;exitY=1;exitDx=0;exitDy=0;entryX=0.5;entryY=0;entryDx=0;entryDy=0;" edge="1" parent="1" source="38ys9Ac9sPvQ0VFKPcC2-18" target="38ys9Ac9sPvQ0VFKPcC2-19">
          <mxGeometry relative="1" as="geometry" />
        </mxCell>
        <mxCell id="38ys9Ac9sPvQ0VFKPcC2-18" value="Banco Volkswagen" style="rounded=0;whiteSpace=wrap;html=1;fillColor=#f8cecc;gradientDirection=east;strokeColor=#b85450;fontStyle=1" vertex="1" parent="1">
          <mxGeometry x="380" y="510" width="140" height="30" as="geometry" />
        </mxCell>
        <mxCell id="38ys9Ac9sPvQ0VFKPcC2-19" value="Finance Table" style="swimlane;fillColor=#f8cecc;gradientDirection=east;strokeColor=#000000;" vertex="1" parent="1">
          <mxGeometry x="350" y="580" width="200" height="130" as="geometry" />
        </mxCell>
        <mxCell id="38ys9Ac9sPvQ0VFKPcC2-20" value="&lt;table width=&quot;187&quot; cellspacing=&quot;0&quot; cellpadding=&quot;0&quot; border=&quot;0&quot;&gt;&lt;colgroup&gt;&lt;col style=&quot;mso-width-source:userset;mso-width-alt:5984;width:140pt&quot; width=&quot;187&quot;&gt;&lt;/colgroup&gt;&lt;tbody&gt;&lt;tr style=&quot;height:15.75pt&quot; height=&quot;21&quot;&gt;&lt;td style=&quot;height:15.75pt;width:140pt&quot; width=&quot;187&quot; class=&quot;xl65&quot; height=&quot;21&quot;&gt;VIN&amp;nbsp;&lt;/td&gt; &lt;/tr&gt; &lt;tr style=&quot;height:15.75pt&quot; height=&quot;21&quot;&gt;  &lt;td style=&quot;height:15.75pt&quot; class=&quot;xl65&quot; height=&quot;21&quot;&gt;has_financing&amp;nbsp;&lt;/td&gt; &lt;/tr&gt; &lt;tr style=&quot;height:15.75pt&quot; height=&quot;21&quot;&gt;  &lt;td style=&quot;height:15.75pt&quot; class=&quot;xl65&quot; height=&quot;21&quot;&gt;financing_start _date&amp;nbsp;&lt;/td&gt; &lt;/tr&gt; &lt;tr style=&quot;height:15.75pt&quot; height=&quot;21&quot;&gt;  &lt;td style=&quot;height:15.75pt&quot; class=&quot;xl65&quot; height=&quot;21&quot;&gt;financing_end_date&amp;nbsp;&lt;/td&gt; &lt;/tr&gt;&lt;/tbody&gt;&lt;/table&gt;" style="text;html=1;strokeColor=none;fillColor=none;align=center;verticalAlign=middle;whiteSpace=wrap;rounded=0;fontStyle=1" vertex="1" parent="38ys9Ac9sPvQ0VFKPcC2-19">
          <mxGeometry x="70" y="60" width="60" height="30" as="geometry" />
        </mxCell>
        <mxCell id="38ys9Ac9sPvQ0VFKPcC2-21" style="edgeStyle=orthogonalEdgeStyle;rounded=0;orthogonalLoop=1;jettySize=auto;html=1;exitX=0.5;exitY=1;exitDx=0;exitDy=0;entryX=0.5;entryY=0;entryDx=0;entryDy=0;" edge="1" parent="1" source="38ys9Ac9sPvQ0VFKPcC2-22" target="38ys9Ac9sPvQ0VFKPcC2-23">
          <mxGeometry relative="1" as="geometry" />
        </mxCell>
        <mxCell id="38ys9Ac9sPvQ0VFKPcC2-22" value="Cad Dealer" style="rounded=0;whiteSpace=wrap;html=1;fillColor=#e1d5e7;gradientDirection=east;fontStyle=1;strokeColor=#9673a6;" vertex="1" parent="1">
          <mxGeometry x="630" y="510" width="120" height="30" as="geometry" />
        </mxCell>
        <mxCell id="38ys9Ac9sPvQ0VFKPcC2-23" value="Dealer Table" style="swimlane;fillColor=#e1d5e7;gradientDirection=east;strokeColor=#000000;" vertex="1" parent="1">
          <mxGeometry x="590" y="580" width="200" height="170" as="geometry">
            <mxRectangle x="1340" y="90" width="190" height="30" as="alternateBounds" />
          </mxGeometry>
        </mxCell>
        <mxCell id="38ys9Ac9sPvQ0VFKPcC2-24" value="VIN&lt;br&gt;&lt;table width=&quot;187&quot; cellspacing=&quot;0&quot; cellpadding=&quot;0&quot; border=&quot;0&quot;&gt; &lt;colgroup&gt;&lt;col style=&quot;mso-width-source:userset;mso-width-alt:5984;width:140pt&quot; width=&quot;187&quot;&gt;&lt;/colgroup&gt; &lt;tbody&gt;&lt;tr style=&quot;height:15.75pt&quot; height=&quot;21&quot;&gt;  &lt;td style=&quot;height:15.75pt;width:140pt&quot; width=&quot;187&quot; class=&quot;xl65&quot; height=&quot;21&quot;&gt;dealer_code&amp;nbsp;&lt;/td&gt; &lt;/tr&gt; &lt;tr style=&quot;height:15.75pt&quot; height=&quot;21&quot;&gt;  &lt;td style=&quot;height:15.75pt&quot; class=&quot;xl65&quot; height=&quot;21&quot;&gt;dealer_name&amp;nbsp;&lt;/td&gt; &lt;/tr&gt; &lt;tr style=&quot;height:15.75pt&quot; height=&quot;21&quot;&gt;  &lt;td style=&quot;height:15.75pt&quot; class=&quot;xl65&quot; height=&quot;21&quot;&gt;dealer_city&amp;nbsp;&lt;/td&gt; &lt;/tr&gt; &lt;tr style=&quot;height:15.75pt&quot; height=&quot;21&quot;&gt;  &lt;td style=&quot;height:15.75pt&quot; class=&quot;xl65&quot; height=&quot;21&quot;&gt;dealer_zipcode&amp;nbsp;&lt;/td&gt; &lt;/tr&gt; &lt;tr style=&quot;height:15.75pt&quot; height=&quot;21&quot;&gt;  &lt;td style=&quot;height:15.75pt&quot; class=&quot;xl65&quot; height=&quot;21&quot;&gt;Dealer_state&amp;nbsp;&lt;/td&gt; &lt;/tr&gt;&lt;/tbody&gt;&lt;/table&gt;" style="text;html=1;strokeColor=none;fillColor=none;align=center;verticalAlign=middle;whiteSpace=wrap;rounded=0;fontStyle=1" vertex="1" parent="38ys9Ac9sPvQ0VFKPcC2-23">
          <mxGeometry x="70" y="80" width="60" height="30" as="geometry" />
        </mxCell>
        <mxCell id="38ys9Ac9sPvQ0VFKPcC2-25" style="edgeStyle=orthogonalEdgeStyle;rounded=0;orthogonalLoop=1;jettySize=auto;html=1;exitX=0.75;exitY=1;exitDx=0;exitDy=0;entryX=0.5;entryY=0;entryDx=0;entryDy=0;" edge="1" parent="1" source="38ys9Ac9sPvQ0VFKPcC2-28" target="38ys9Ac9sPvQ0VFKPcC2-29">
          <mxGeometry relative="1" as="geometry">
            <Array as="points">
              <mxPoint x="740" y="70" />
              <mxPoint x="938" y="70" />
            </Array>
          </mxGeometry>
        </mxCell>
        <mxCell id="38ys9Ac9sPvQ0VFKPcC2-26" style="edgeStyle=orthogonalEdgeStyle;rounded=0;orthogonalLoop=1;jettySize=auto;html=1;exitX=0.5;exitY=1;exitDx=0;exitDy=0;entryX=0.5;entryY=0;entryDx=0;entryDy=0;" edge="1" parent="1" source="38ys9Ac9sPvQ0VFKPcC2-28" target="38ys9Ac9sPvQ0VFKPcC2-10">
          <mxGeometry relative="1" as="geometry" />
        </mxCell>
        <mxCell id="38ys9Ac9sPvQ0VFKPcC2-27" style="edgeStyle=orthogonalEdgeStyle;rounded=0;orthogonalLoop=1;jettySize=auto;html=1;exitX=0.25;exitY=1;exitDx=0;exitDy=0;entryX=0.75;entryY=0;entryDx=0;entryDy=0;" edge="1" parent="1" source="38ys9Ac9sPvQ0VFKPcC2-28" target="38ys9Ac9sPvQ0VFKPcC2-9">
          <mxGeometry relative="1" as="geometry">
            <Array as="points">
              <mxPoint x="680" y="70" />
              <mxPoint x="518" y="70" />
            </Array>
          </mxGeometry>
        </mxCell>
        <mxCell id="38ys9Ac9sPvQ0VFKPcC2-28" value="AutoService+" style="rounded=0;whiteSpace=wrap;html=1;fillColor=#b0e3e6;gradientDirection=east;fontStyle=1;strokeColor=#0e8088;" vertex="1" parent="1">
          <mxGeometry x="650" y="16" width="120" height="30" as="geometry" />
        </mxCell>
        <mxCell id="38ys9Ac9sPvQ0VFKPcC2-29" value="Customer Consent Table" style="swimlane;fillColor=#B0E3E6;gradientColor=none;gradientDirection=east;" vertex="1" parent="1">
          <mxGeometry x="838" y="89" width="200" height="110" as="geometry" />
        </mxCell>
        <mxCell id="38ys9Ac9sPvQ0VFKPcC2-30" value="&lt;br&gt;&lt;table width=&quot;187&quot; cellspacing=&quot;0&quot; cellpadding=&quot;0&quot; border=&quot;0&quot;&gt; &lt;colgroup&gt;&lt;col style=&quot;mso-width-source:userset;mso-width-alt:5984;width:140pt&quot; width=&quot;187&quot;&gt;&lt;/colgroup&gt; &lt;tbody&gt;&lt;tr style=&quot;height:15.75pt&quot; height=&quot;21&quot;&gt;  &lt;td style=&quot;height:15.75pt;width:140pt&quot; width=&quot;187&quot; class=&quot;xl65&quot; height=&quot;21&quot;&gt;VIN&amp;nbsp;&lt;/td&gt; &lt;/tr&gt; &lt;tr style=&quot;height:15.75pt&quot; height=&quot;21&quot;&gt;  &lt;td style=&quot;height:15.75pt&quot; class=&quot;xl65&quot; height=&quot;21&quot;&gt;customer_id&amp;nbsp;&lt;/td&gt; &lt;/tr&gt; &lt;tr style=&quot;height:15.75pt&quot; height=&quot;21&quot;&gt;  &lt;td style=&quot;height:15.75pt&quot; class=&quot;xl65&quot; height=&quot;21&quot;&gt;consent&amp;nbsp;&lt;/td&gt; &lt;/tr&gt;&lt;/tbody&gt;&lt;/table&gt;" style="text;html=1;strokeColor=none;fillColor=none;align=center;verticalAlign=middle;whiteSpace=wrap;rounded=0;fontStyle=1" vertex="1" parent="38ys9Ac9sPvQ0VFKPcC2-29">
          <mxGeometry x="70" y="40" width="60" height="30" as="geometry" />
        </mxCell>
        <mxCell id="38ys9Ac9sPvQ0VFKPcC2-31" value="Contacted from Marketing Campaigns" style="swimlane;fillColor=#D1D38D;gradientDirection=east;strokeColor=#23445d;" vertex="1" parent="1">
          <mxGeometry x="829" y="580" width="250" height="190" as="geometry" />
        </mxCell>
        <mxCell id="38ys9Ac9sPvQ0VFKPcC2-32" value="&lt;br&gt;&lt;table width=&quot;187&quot; cellspacing=&quot;0&quot; cellpadding=&quot;0&quot; border=&quot;0&quot;&gt; &lt;colgroup&gt;&lt;col style=&quot;mso-width-source:userset;mso-width-alt:5984;width:140pt&quot; width=&quot;187&quot;&gt;&lt;/colgroup&gt; &lt;tbody&gt;&lt;tr style=&quot;height:15.75pt&quot; height=&quot;21&quot;&gt;  &lt;td style=&quot;height:15.75pt;width:140pt&quot; width=&quot;187&quot; class=&quot;xl65&quot; height=&quot;21&quot;&gt;VIN&amp;nbsp;&lt;/td&gt; &lt;/tr&gt; &lt;tr style=&quot;height:15.75pt&quot; height=&quot;21&quot;&gt;  &lt;td style=&quot;height:15.75pt&quot; class=&quot;xl65&quot; height=&quot;21&quot;&gt;customer_id&amp;nbsp;&lt;/td&gt; &lt;/tr&gt; &lt;tr style=&quot;height:15.75pt&quot; height=&quot;21&quot;&gt;  &lt;td style=&quot;height:15.75pt&quot; class=&quot;xl65&quot; height=&quot;21&quot;&gt;date of contact&amp;nbsp;&lt;/td&gt; &lt;/tr&gt; &lt;tr style=&quot;height:15.75pt&quot; height=&quot;21&quot;&gt;  &lt;td style=&quot;height:15.75pt&quot; class=&quot;xl65&quot; height=&quot;21&quot;&gt;campaign type id&amp;nbsp;&lt;/td&gt; &lt;/tr&gt; &lt;tr style=&quot;height:15.75pt&quot; height=&quot;21&quot;&gt;  &lt;td style=&quot;height:15.75pt&quot; class=&quot;xl65&quot; height=&quot;21&quot;&gt;campaign start date&amp;nbsp;&lt;/td&gt; &lt;/tr&gt; &lt;tr style=&quot;height:15.75pt&quot; height=&quot;21&quot;&gt;  &lt;td style=&quot;height:15.75pt&quot; class=&quot;xl65&quot; height=&quot;21&quot;&gt;campaign end date&amp;nbsp;&lt;/td&gt; &lt;/tr&gt; &lt;tr style=&quot;height:15.75pt&quot; height=&quot;21&quot;&gt;  &lt;td style=&quot;height:15.75pt&quot; class=&quot;xl65&quot; height=&quot;21&quot;&gt;HPG focus&amp;nbsp;&lt;/td&gt; &lt;/tr&gt;&lt;/tbody&gt;&lt;/table&gt;" style="text;html=1;strokeColor=none;fillColor=none;align=center;verticalAlign=middle;whiteSpace=wrap;rounded=0;fontStyle=1" vertex="1" parent="38ys9Ac9sPvQ0VFKPcC2-31">
          <mxGeometry x="95" y="80" width="60" height="30" as="geometry" />
        </mxCell>
        <mxCell id="38ys9Ac9sPvQ0VFKPcC2-33" style="edgeStyle=orthogonalEdgeStyle;rounded=0;orthogonalLoop=1;jettySize=auto;html=1;exitX=0.5;exitY=1;exitDx=0;exitDy=0;entryX=0.5;entryY=0;entryDx=0;entryDy=0;" edge="1" parent="1" source="38ys9Ac9sPvQ0VFKPcC2-34" target="38ys9Ac9sPvQ0VFKPcC2-31">
          <mxGeometry relative="1" as="geometry" />
        </mxCell>
        <mxCell id="38ys9Ac9sPvQ0VFKPcC2-34" value="TBD" style="rounded=0;whiteSpace=wrap;html=1;fillColor=#D1D38D;gradientColor=none;gradientDirection=east;fontStyle=1" vertex="1" parent="1">
          <mxGeometry x="894" y="510" width="120" height="30" as="geometry" />
        </mxCell>
      </root>
    </mxGraphModel>
  </diagram>
</mxfile>
